<svg xmlns="http://www.w3.org/2000/svg" viewBox="0 0 64 64" fill="none">
  <rect width="64" height="64" rx="8" fill="#4A90D9"/>
  <path d="M32 12C20.954 12 12 20.954 12 32s8.954 20 20 20 20-8.954 20-20S43.046 12 32 12zm0 36c-8.837 0-16-7.163-16-16s7.163-16 16-16 16 7.163 16 16-7.163 16-16 16z" fill="white"/>
  <path d="M32 20c-6.627 0-12 5.373-12 12s5.373 12 12 12 12-5.373 12-12-5.373-12-12-12zm0 20c-4.418 0-8-3.582-8-8s3.582-8 8-8 8 3.582 8 8-3.582 8-8 8z" fill="white"/>
  <rect x="30" y="26" width="4" height="12" rx="2" fill="white"/>
  <rect x="26" y="30" width="12" height="4" rx="2" fill="white"/>
</svg>
